<mxfile host="app.diagrams.net" modified="2020-06-24T03:25:33.421Z" agent="5.0 (Windows NT 10.0; Win64; x64) AppleWebKit/537.36 (KHTML, like Gecko) Chrome/83.0.4103.106 Safari/537.36 Edg/83.0.478.54" etag="PfHPnIGXV343-GgzC21J" version="13.3.0" type="github">
  <diagram id="4WbnDxN287iUgR8xs6Hp" name="第 1 页">
    <mxGraphModel dx="460" dy="776" grid="1" gridSize="10" guides="1" tooltips="1" connect="1" arrows="1" fold="1" page="1" pageScale="1" pageWidth="827" pageHeight="1169" math="0" shadow="0">
      <root>
        <mxCell id="0" />
        <mxCell id="1" parent="0" />
        <mxCell id="_Q8EhHVZcNwwLPwxINLw-41" value="&amp;lt;&amp;lt;include&amp;gt;&amp;gt;" style="rounded=0;orthogonalLoop=1;jettySize=auto;exitX=1;exitY=0.5;exitDx=0;exitDy=0;entryX=0;entryY=0.5;entryDx=0;entryDy=0;html=1;endArrow=classic;dashed=1;" parent="1" source="yA0ouvQeFD9ly3XBQBOp-1" edge="1">
          <mxGeometry relative="1" as="geometry">
            <mxPoint x="220" y="200" as="targetPoint" />
          </mxGeometry>
        </mxCell>
        <mxCell id="_Q8EhHVZcNwwLPwxINLw-42" style="rounded=0;orthogonalLoop=1;jettySize=auto;html=1;exitX=1;exitY=0.5;exitDx=0;exitDy=0;entryX=0;entryY=0.5;entryDx=0;entryDy=0;endArrow=classic;dashed=1;" parent="1" source="yA0ouvQeFD9ly3XBQBOp-1" edge="1">
          <mxGeometry relative="1" as="geometry">
            <mxPoint x="220" y="380" as="targetPoint" />
          </mxGeometry>
        </mxCell>
        <mxCell id="aJ6DohNiMsdnpgR9BI76-1" value="&amp;lt;&amp;lt;include&amp;gt;&amp;gt;" style="edgeLabel;html=1;align=center;verticalAlign=middle;resizable=0;points=[];" parent="_Q8EhHVZcNwwLPwxINLw-42" vertex="1" connectable="0">
          <mxGeometry x="0.3257" y="-1" relative="1" as="geometry">
            <mxPoint y="-9.15" as="offset" />
          </mxGeometry>
        </mxCell>
        <mxCell id="_Q8EhHVZcNwwLPwxINLw-43" value="&amp;lt;&amp;lt;include&amp;gt;&amp;gt;" style="rounded=0;orthogonalLoop=1;jettySize=auto;html=1;exitX=1;exitY=0.5;exitDx=0;exitDy=0;entryX=0;entryY=0.5;entryDx=0;entryDy=0;endArrow=classic;dashed=1;" parent="1" source="yA0ouvQeFD9ly3XBQBOp-1" edge="1">
          <mxGeometry x="0.4152" y="12" relative="1" as="geometry">
            <mxPoint x="220" y="460" as="targetPoint" />
            <mxPoint as="offset" />
          </mxGeometry>
        </mxCell>
        <mxCell id="_Q8EhHVZcNwwLPwxINLw-44" value="&amp;lt;&amp;lt;include&amp;gt;&amp;gt;" style="rounded=0;orthogonalLoop=1;jettySize=auto;html=1;exitX=1;exitY=0.5;exitDx=0;exitDy=0;entryX=0;entryY=0.5;entryDx=0;entryDy=0;endArrow=classic;dashed=1;" parent="1" source="yA0ouvQeFD9ly3XBQBOp-1" edge="1">
          <mxGeometry x="0.5131" y="7" relative="1" as="geometry">
            <mxPoint x="220" y="540" as="targetPoint" />
            <mxPoint as="offset" />
          </mxGeometry>
        </mxCell>
        <mxCell id="yA0ouvQeFD9ly3XBQBOp-2" style="edgeStyle=none;rounded=0;orthogonalLoop=1;jettySize=auto;html=1;exitX=0.5;exitY=0.5;exitDx=0;exitDy=0;exitPerimeter=0;entryX=0;entryY=0.5;entryDx=0;entryDy=0;endArrow=none;endFill=0;" parent="1" source="_Q8EhHVZcNwwLPwxINLw-6" target="yA0ouvQeFD9ly3XBQBOp-1" edge="1">
          <mxGeometry relative="1" as="geometry" />
        </mxCell>
        <mxCell id="_Q8EhHVZcNwwLPwxINLw-6" value="用户" style="shape=umlActor;verticalLabelPosition=bottom;labelBackgroundColor=#ffffff;verticalAlign=top;html=1;outlineConnect=0;" parent="1" vertex="1">
          <mxGeometry x="10" y="300" width="40" height="90" as="geometry" />
        </mxCell>
        <mxCell id="_Q8EhHVZcNwwLPwxINLw-45" style="rounded=0;orthogonalLoop=1;jettySize=auto;html=1;exitX=1;exitY=0.5;exitDx=0;exitDy=0;entryX=0;entryY=0.5;entryDx=0;entryDy=0;dashed=1;" parent="1" edge="1">
          <mxGeometry relative="1" as="geometry">
            <mxPoint x="300" y="200" as="sourcePoint" />
            <mxPoint x="400" y="90" as="targetPoint" />
          </mxGeometry>
        </mxCell>
        <mxCell id="_Q8EhHVZcNwwLPwxINLw-76" value="&amp;lt;&amp;lt;include&amp;gt;&amp;gt;" style="edgeLabel;html=1;align=center;verticalAlign=middle;resizable=0;points=[];" parent="_Q8EhHVZcNwwLPwxINLw-45" vertex="1" connectable="0">
          <mxGeometry x="-0.2069" y="1" relative="1" as="geometry">
            <mxPoint x="13.29" y="-30.1" as="offset" />
          </mxGeometry>
        </mxCell>
        <mxCell id="_Q8EhHVZcNwwLPwxINLw-46" style="rounded=0;orthogonalLoop=1;jettySize=auto;html=1;exitX=1;exitY=0.5;exitDx=0;exitDy=0;entryX=0;entryY=0.5;entryDx=0;entryDy=0;dashed=1;" parent="1" edge="1">
          <mxGeometry relative="1" as="geometry">
            <mxPoint x="300" y="200" as="sourcePoint" />
            <mxPoint x="400" y="150" as="targetPoint" />
          </mxGeometry>
        </mxCell>
        <mxCell id="_Q8EhHVZcNwwLPwxINLw-78" value="&amp;lt;&amp;lt;include&amp;gt;&amp;gt;" style="edgeLabel;html=1;align=center;verticalAlign=middle;resizable=0;points=[];" parent="_Q8EhHVZcNwwLPwxINLw-46" vertex="1" connectable="0">
          <mxGeometry x="-0.425" y="-2" relative="1" as="geometry">
            <mxPoint x="33.6" y="-10.459999999999999" as="offset" />
          </mxGeometry>
        </mxCell>
        <mxCell id="_Q8EhHVZcNwwLPwxINLw-47" style="orthogonalLoop=1;jettySize=auto;html=1;exitX=1;exitY=0.5;exitDx=0;exitDy=0;entryX=0;entryY=0.5;entryDx=0;entryDy=0;endArrow=classic;fontSize=11;rounded=0;dashed=1;" parent="1" edge="1">
          <mxGeometry relative="1" as="geometry">
            <mxPoint x="300" y="200" as="sourcePoint" />
            <mxPoint x="400" y="220" as="targetPoint" />
          </mxGeometry>
        </mxCell>
        <mxCell id="_Q8EhHVZcNwwLPwxINLw-79" value="&amp;lt;&amp;lt;include&amp;gt;&amp;gt;" style="edgeLabel;html=1;align=center;verticalAlign=middle;resizable=0;points=[];" parent="_Q8EhHVZcNwwLPwxINLw-47" vertex="1" connectable="0">
          <mxGeometry x="0.42" y="-2" relative="1" as="geometry">
            <mxPoint x="-10.21" y="-6.08" as="offset" />
          </mxGeometry>
        </mxCell>
        <mxCell id="_Q8EhHVZcNwwLPwxINLw-48" style="orthogonalLoop=1;jettySize=auto;html=1;exitX=1;exitY=0.5;exitDx=0;exitDy=0;entryX=0;entryY=0.5;entryDx=0;entryDy=0;endArrow=classic;fontSize=11;rounded=0;dashed=1;" parent="1" edge="1">
          <mxGeometry relative="1" as="geometry">
            <mxPoint x="300" y="200" as="sourcePoint" />
            <mxPoint x="400" y="280" as="targetPoint" />
          </mxGeometry>
        </mxCell>
        <mxCell id="_Q8EhHVZcNwwLPwxINLw-80" value="&amp;lt;&amp;lt;include&amp;gt;&amp;gt;" style="edgeLabel;html=1;align=center;verticalAlign=middle;resizable=0;points=[];" parent="_Q8EhHVZcNwwLPwxINLw-48" vertex="1" connectable="0">
          <mxGeometry x="0.296" y="-4" relative="1" as="geometry">
            <mxPoint as="offset" />
          </mxGeometry>
        </mxCell>
        <mxCell id="_Q8EhHVZcNwwLPwxINLw-52" style="rounded=0;orthogonalLoop=1;jettySize=auto;html=1;exitX=1;exitY=0.5;exitDx=0;exitDy=0;entryX=0;entryY=0.5;entryDx=0;entryDy=0;dashed=1;endFill=0;endArrow=none;startFill=1;startArrow=classic;" parent="1" edge="1">
          <mxGeometry relative="1" as="geometry">
            <mxPoint x="300" y="380" as="sourcePoint" />
            <mxPoint x="400" y="420" as="targetPoint" />
          </mxGeometry>
        </mxCell>
        <mxCell id="_Q8EhHVZcNwwLPwxINLw-82" value="&lt;span style=&quot;color: rgba(0 , 0 , 0 , 0) ; font-family: monospace ; font-size: 0px ; background-color: rgb(248 , 249 , 250)&quot;&gt;%3CmxGraphModel%3E%3Croot%3E%3CmxCell%20id%3D%220%22%2F%3E%3CmxCell%20id%3D%221%22%20parent%3D%220%22%2F%3E%3CmxCell%20id%3D%222%22%20style%3D%22rounded%3D0%3BorthogonalLoop%3D1%3BjettySize%3Dauto%3Bhtml%3D1%3BexitX%3D1%3BexitY%3D0.5%3BexitDx%3D0%3BexitDy%3D0%3BentryX%3D0%3BentryY%3D0.5%3BentryDx%3D0%3BentryDy%3D0%3Bdashed%3D1%3B%22%20edge%3D%221%22%20parent%3D%221%22%3E%3CmxGeometry%20relative%3D%221%22%20as%3D%22geometry%22%3E%3CmxPoint%20x%3D%22300%22%20y%3D%22380%22%20as%3D%22sourcePoint%22%2F%3E%3CmxPoint%20x%3D%22400%22%20y%3D%22340%22%20as%3D%22targetPoint%22%2F%3E%3C%2FmxGeometry%3E%3C%2FmxCell%3E%3CmxCell%20id%3D%223%22%20value%3D%22%26amp%3Blt%3B%26amp%3Blt%3Binclude%26amp%3Bgt%3B%26amp%3Bgt%3B%22%20style%3D%22edgeLabel%3Bhtml%3D1%3Balign%3Dcenter%3BverticalAlign%3Dmiddle%3Bresizable%3D0%3Bpoints%3D%5B%5D%3B%22%20vertex%3D%221%22%20connectable%3D%220%22%20parent%3D%222%22%3E%3CmxGeometry%20x%3D%22-0.44%22%20y%3D%222%22%20relative%3D%221%22%20as%3D%22geometry%22%3E%3CmxPoint%20x%3D%2217.31%22%20y%3D%22-10.05%22%20as%3D%22offset%22%2F%3E%3C%2FmxGeometry%3E%3C%2FmxCell%3E%3C%2Froot%3E%3C%2FmxGraphModel%3E《《&amp;lt;&lt;/span&gt;" style="edgeLabel;html=1;align=center;verticalAlign=middle;resizable=0;points=[];" parent="_Q8EhHVZcNwwLPwxINLw-52" vertex="1" connectable="0">
          <mxGeometry x="-0.4" relative="1" as="geometry">
            <mxPoint x="20.29" y="8.120000000000001" as="offset" />
          </mxGeometry>
        </mxCell>
        <mxCell id="yA0ouvQeFD9ly3XBQBOp-21" value="&amp;lt;&amp;lt;extend&amp;gt;&amp;gt;" style="edgeLabel;html=1;align=center;verticalAlign=middle;resizable=0;points=[];" parent="_Q8EhHVZcNwwLPwxINLw-52" vertex="1" connectable="0">
          <mxGeometry x="0.3138" y="-2" relative="1" as="geometry">
            <mxPoint x="-5.18" y="-8.23" as="offset" />
          </mxGeometry>
        </mxCell>
        <mxCell id="_Q8EhHVZcNwwLPwxINLw-49" style="rounded=0;orthogonalLoop=1;jettySize=auto;html=1;exitX=1;exitY=0.5;exitDx=0;exitDy=0;entryX=0;entryY=0.5;entryDx=0;entryDy=0;dashed=1;endFill=0;endArrow=none;startFill=1;startArrow=classic;" parent="1" edge="1" target="yA0ouvQeFD9ly3XBQBOp-19">
          <mxGeometry relative="1" as="geometry">
            <mxPoint x="480" y="280" as="sourcePoint" />
            <mxPoint x="570" y="240" as="targetPoint" />
          </mxGeometry>
        </mxCell>
        <mxCell id="_Q8EhHVZcNwwLPwxINLw-83" value="&amp;lt;&amp;lt;extend&amp;gt;&amp;gt;" style="edgeLabel;html=1;align=center;verticalAlign=middle;resizable=0;points=[];" parent="_Q8EhHVZcNwwLPwxINLw-49" vertex="1" connectable="0">
          <mxGeometry x="0.5471" y="3" relative="1" as="geometry">
            <mxPoint x="-28.230000000000004" y="13.61" as="offset" />
          </mxGeometry>
        </mxCell>
        <mxCell id="_Q8EhHVZcNwwLPwxINLw-50" style="rounded=0;orthogonalLoop=1;jettySize=auto;html=1;exitX=1;exitY=0.5;exitDx=0;exitDy=0;entryX=0;entryY=0.5;entryDx=0;entryDy=0;dashed=1;endFill=0;endArrow=none;startFill=1;startArrow=classic;" parent="1" edge="1" target="yA0ouvQeFD9ly3XBQBOp-20">
          <mxGeometry relative="1" as="geometry">
            <mxPoint x="480" y="280" as="sourcePoint" />
            <mxPoint x="570" y="300" as="targetPoint" />
          </mxGeometry>
        </mxCell>
        <mxCell id="_Q8EhHVZcNwwLPwxINLw-101" value="&amp;lt;&amp;lt;extend&amp;gt;&amp;gt;" style="edgeLabel;html=1;align=center;verticalAlign=middle;resizable=0;points=[];" parent="_Q8EhHVZcNwwLPwxINLw-50" vertex="1" connectable="0">
          <mxGeometry x="-0.4471" y="-1" relative="1" as="geometry">
            <mxPoint x="35.019999999999996" y="-12.729999999999999" as="offset" />
          </mxGeometry>
        </mxCell>
        <mxCell id="_Q8EhHVZcNwwLPwxINLw-54" style="rounded=0;orthogonalLoop=1;jettySize=auto;html=1;exitX=1;exitY=0.5;exitDx=0;exitDy=0;entryX=0;entryY=0.5;entryDx=0;entryDy=0;dashed=1;" parent="1" edge="1">
          <mxGeometry relative="1" as="geometry">
            <mxPoint x="480" y="420" as="sourcePoint" />
            <mxPoint x="570" y="370" as="targetPoint" />
          </mxGeometry>
        </mxCell>
        <mxCell id="_Q8EhHVZcNwwLPwxINLw-84" value="&amp;lt;&amp;lt;include&amp;gt;&amp;gt;" style="edgeLabel;html=1;align=center;verticalAlign=middle;resizable=0;points=[];" parent="_Q8EhHVZcNwwLPwxINLw-54" vertex="1" connectable="0">
          <mxGeometry x="0.36" relative="1" as="geometry">
            <mxPoint x="-11.14" y="0.5700000000000001" as="offset" />
          </mxGeometry>
        </mxCell>
        <mxCell id="_Q8EhHVZcNwwLPwxINLw-55" style="rounded=0;orthogonalLoop=1;jettySize=auto;html=1;exitX=1;exitY=0.5;exitDx=0;exitDy=0;entryX=0;entryY=0.5;entryDx=0;entryDy=0;dashed=1;endArrow=classic;" parent="1" edge="1">
          <mxGeometry relative="1" as="geometry">
            <mxPoint x="480" y="420" as="sourcePoint" />
            <mxPoint x="570" y="430" as="targetPoint" />
          </mxGeometry>
        </mxCell>
        <mxCell id="_Q8EhHVZcNwwLPwxINLw-85" value="&amp;lt;&amp;lt;include&amp;gt;&amp;gt;" style="edgeLabel;html=1;align=center;verticalAlign=middle;resizable=0;points=[];" parent="_Q8EhHVZcNwwLPwxINLw-55" vertex="1" connectable="0">
          <mxGeometry x="0.68" y="-1" relative="1" as="geometry">
            <mxPoint x="-25.42" y="-9.39" as="offset" />
          </mxGeometry>
        </mxCell>
        <mxCell id="_Q8EhHVZcNwwLPwxINLw-56" style="rounded=0;orthogonalLoop=1;jettySize=auto;html=1;exitX=1;exitY=0.5;exitDx=0;exitDy=0;entryX=0;entryY=0.5;entryDx=0;entryDy=0;dashed=1;endArrow=classic;" parent="1" edge="1">
          <mxGeometry relative="1" as="geometry">
            <mxPoint x="480" y="420" as="sourcePoint" />
            <mxPoint x="570" y="490" as="targetPoint" />
          </mxGeometry>
        </mxCell>
        <mxCell id="_Q8EhHVZcNwwLPwxINLw-86" value="&amp;lt;&amp;lt;include&amp;gt;&amp;gt;" style="edgeLabel;html=1;align=center;verticalAlign=middle;resizable=0;points=[];" parent="_Q8EhHVZcNwwLPwxINLw-56" vertex="1" connectable="0">
          <mxGeometry x="0.3282" y="1" relative="1" as="geometry">
            <mxPoint x="-0.6" y="-5.87" as="offset" />
          </mxGeometry>
        </mxCell>
        <mxCell id="yA0ouvQeFD9ly3XBQBOp-1" value="个人管理" style="rounded=1;whiteSpace=wrap;html=1;" parent="1" vertex="1">
          <mxGeometry x="70" y="325" width="80" height="40" as="geometry" />
        </mxCell>
        <mxCell id="yA0ouvQeFD9ly3XBQBOp-4" value="账户管理" style="ellipse;whiteSpace=wrap;html=1;rounded=1;gradientColor=#ffffff;" parent="1" vertex="1">
          <mxGeometry x="220" y="180" width="80" height="40" as="geometry" />
        </mxCell>
        <mxCell id="yA0ouvQeFD9ly3XBQBOp-6" value="发布课程" style="ellipse;whiteSpace=wrap;html=1;rounded=1;gradientColor=#ffffff;" parent="1" vertex="1">
          <mxGeometry x="220" y="360" width="80" height="40" as="geometry" />
        </mxCell>
        <mxCell id="yA0ouvQeFD9ly3XBQBOp-7" value="查看课程浏览历史" style="ellipse;whiteSpace=wrap;html=1;rounded=1;gradientColor=#ffffff;" parent="1" vertex="1">
          <mxGeometry x="220" y="440" width="80" height="40" as="geometry" />
        </mxCell>
        <mxCell id="yA0ouvQeFD9ly3XBQBOp-8" value="签到积累积分" style="ellipse;whiteSpace=wrap;html=1;rounded=1;gradientColor=#ffffff;" parent="1" vertex="1">
          <mxGeometry x="220" y="520" width="80" height="40" as="geometry" />
        </mxCell>
        <mxCell id="yA0ouvQeFD9ly3XBQBOp-9" value="注册" style="ellipse;whiteSpace=wrap;html=1;rounded=1;gradientColor=#ffffff;" parent="1" vertex="1">
          <mxGeometry x="400" y="70" width="80" height="40" as="geometry" />
        </mxCell>
        <mxCell id="yA0ouvQeFD9ly3XBQBOp-10" value="登录" style="ellipse;whiteSpace=wrap;html=1;rounded=1;gradientColor=#ffffff;" parent="1" vertex="1">
          <mxGeometry x="400" y="130" width="80" height="40" as="geometry" />
        </mxCell>
        <mxCell id="yA0ouvQeFD9ly3XBQBOp-11" value="绑定第三方账户" style="ellipse;whiteSpace=wrap;html=1;rounded=1;gradientColor=#ffffff;" parent="1" vertex="1">
          <mxGeometry x="400" y="200" width="80" height="40" as="geometry" />
        </mxCell>
        <mxCell id="yA0ouvQeFD9ly3XBQBOp-12" value="更改用户信息" style="ellipse;whiteSpace=wrap;html=1;rounded=1;gradientColor=#ffffff;" parent="1" vertex="1">
          <mxGeometry x="400" y="260" width="80" height="40" as="geometry" />
        </mxCell>
        <mxCell id="yA0ouvQeFD9ly3XBQBOp-14" value="管理已发布课程" style="ellipse;whiteSpace=wrap;html=1;rounded=1;gradientColor=#ffffff;" parent="1" vertex="1">
          <mxGeometry x="400" y="400" width="80" height="40" as="geometry" />
        </mxCell>
        <mxCell id="yA0ouvQeFD9ly3XBQBOp-15" value="查看列表" style="ellipse;whiteSpace=wrap;html=1;rounded=1;gradientColor=#ffffff;" parent="1" vertex="1">
          <mxGeometry x="570" y="350" width="80" height="40" as="geometry" />
        </mxCell>
        <mxCell id="yA0ouvQeFD9ly3XBQBOp-16" value="删除" style="ellipse;whiteSpace=wrap;html=1;rounded=1;gradientColor=#ffffff;" parent="1" vertex="1">
          <mxGeometry x="570" y="410" width="80" height="40" as="geometry" />
        </mxCell>
        <mxCell id="yA0ouvQeFD9ly3XBQBOp-17" value="修改" style="ellipse;whiteSpace=wrap;html=1;rounded=1;gradientColor=#ffffff;" parent="1" vertex="1">
          <mxGeometry x="570" y="470" width="80" height="40" as="geometry" />
        </mxCell>
        <mxCell id="yA0ouvQeFD9ly3XBQBOp-19" value="更换头像" style="ellipse;whiteSpace=wrap;html=1;rounded=1;gradientColor=#ffffff;" parent="1" vertex="1">
          <mxGeometry x="570" y="180" width="80" height="40" as="geometry" />
        </mxCell>
        <mxCell id="yA0ouvQeFD9ly3XBQBOp-20" value="更改用户名" style="ellipse;whiteSpace=wrap;html=1;rounded=1;gradientColor=#ffffff;" parent="1" vertex="1">
          <mxGeometry x="570" y="230" width="80" height="40" as="geometry" />
        </mxCell>
        <mxCell id="vfofbVD8pyboMp7JpdKn-1" style="rounded=0;orthogonalLoop=1;jettySize=auto;html=1;exitX=1;exitY=0.5;exitDx=0;exitDy=0;entryX=-0.025;entryY=0.35;entryDx=0;entryDy=0;dashed=1;endFill=0;endArrow=none;startFill=1;startArrow=classic;entryPerimeter=0;" edge="1" parent="1" source="yA0ouvQeFD9ly3XBQBOp-12" target="vfofbVD8pyboMp7JpdKn-3">
          <mxGeometry relative="1" as="geometry">
            <mxPoint x="490" y="290" as="sourcePoint" />
            <mxPoint x="580" y="310" as="targetPoint" />
          </mxGeometry>
        </mxCell>
        <mxCell id="vfofbVD8pyboMp7JpdKn-2" value="&amp;lt;&amp;lt;extend&amp;gt;&amp;gt;" style="edgeLabel;html=1;align=center;verticalAlign=middle;resizable=0;points=[];" vertex="1" connectable="0" parent="vfofbVD8pyboMp7JpdKn-1">
          <mxGeometry x="-0.4471" y="-1" relative="1" as="geometry">
            <mxPoint x="25.77" y="3.5999999999999996" as="offset" />
          </mxGeometry>
        </mxCell>
        <mxCell id="vfofbVD8pyboMp7JpdKn-3" value="更改其他信息" style="ellipse;whiteSpace=wrap;html=1;rounded=1;gradientColor=#ffffff;" vertex="1" parent="1">
          <mxGeometry x="570" y="285" width="80" height="40" as="geometry" />
        </mxCell>
      </root>
    </mxGraphModel>
  </diagram>
</mxfile>
